# xmcd CD database file
# Copyright (C) 1993-1998 Ti Kan
#
# Track frame offsets:
#	183
#	13133
#	26805
#	42190
#	55990
#	68800
#	81630
#	96210
#	107798
#	120913
#	132933
#	146188
#	157895
#	171345
#	184578
#	196953
#
# Disc length: 2800 seconds
#
# Revision: 1
# Processed by: cddbd v1.4b41PL1 Copyright (c) Steve Scherf et al.
# Submitted via: CDValet v3.30 - Copyright (c) 1997 Greg Leichner
#
DISCID=e10aee10
DTITLE=Muddy Waters - Chess Masters
DYEAR=1900
DGENRE=
TTITLE0=I Just Wanna Make Love To You
TTITLE1=Rollin' Stone
TTITLE2=Honey Bee
TTITLE3=I'm Ready
TTITLE4=Hoochie Coochie
TTITLE5=Louisiana Blues
TTITLE6=Just To Be With You
TTITLE7=Gypsy Women
TTITLE8=Mannish Boy
TTITLE9=Long Distance Call
TTITLE10=The Walking Blues
TTITLE11=Same Thing
TTITLE12=Rollin' And A Tumblin'
TTITLE13=She Loves Me
TTITLE14=Canary Bird
TTITLE15=40 Days And 40 Nights
EXTD=
EXTT0=
EXTT1=
EXTT2=
EXTT3=
EXTT4=
EXTT5=
EXTT6=
EXTT7=
EXTT8=
EXTT9=
EXTT10=
EXTT11=
EXTT12=
EXTT13=
EXTT14=
EXTT15=
PLAYORDER=
